<svg width="114" height="114" viewBox="0 0 114 114" fill="none" xmlns="http://www.w3.org/2000/svg">
<g clip-path="url(#clip0_25317_868)">
<path d="M90.1186 40.8057C88.1801 40.8057 86.2978 41.0424 84.4931 41.4783C79.073 31.8983 68.7923 25.4315 57 25.4315C45.2077 25.4315 34.927 31.8986 29.5069 41.4783C27.7022 41.0424 25.8199 40.8057 23.8814 40.8057C10.692 40.8057 0 51.4977 0 64.6871C0 77.8766 10.692 88.5686 23.8814 88.5686H49.9046V74.3778H38.0477V74.2257L56.7751 54.6683H57.2251L75.9525 74.2257V74.3778H64.0956V88.5686H90.1188C103.308 88.5686 114 77.8766 114 64.6871C114 51.4977 103.308 40.8057 90.1186 40.8057Z" fill="#9EA0A5"/>
</g>
<defs>
<clipPath id="clip0_25317_868">
<rect width="114" height="114" fill="white"/>
</clipPath>
</defs>
</svg>
