<svg width="20" height="20" viewBox="0 0 20 20" fill="none" xmlns="http://www.w3.org/2000/svg">
<path d="M15.556 9.2196L6.65579 0.31951C6.44994 0.113495 6.17515 0 5.88214 0C5.58913 0 5.31434 0.113495 5.10849 0.31951L4.45305 0.974789C4.02655 1.40178 4.02655 2.09576 4.45305 2.52209L11.9268 9.99585L4.44475 17.4779C4.2389 17.6839 4.12524 17.9586 4.12524 18.2514C4.12524 18.5446 4.2389 18.8192 4.44475 19.0254L5.1002 19.6805C5.30621 19.8865 5.58084 20 5.87385 20C6.16685 20 6.44165 19.8865 6.6475 19.6805L15.556 10.7723C15.7624 10.5656 15.8757 10.2897 15.8751 9.99634C15.8757 9.70187 15.7624 9.4261 15.556 9.2196Z" fill="#DDDDDE"/>
</svg>
