<svg width="16" height="16" viewBox="0 0 16 16" fill="none" xmlns="http://www.w3.org/2000/svg">
<g clip-path="url(#clip0_108_140)">
<path d="M8.62432 12.4449L15.7444 5.32473C15.9092 5.16005 16 4.94021 16 4.70581C16 4.47141 15.9092 4.25157 15.7444 4.08689L15.2202 3.56253C14.8786 3.22133 14.3234 3.22133 13.9823 3.56253L8.00332 9.54154L2.01768 3.5559C1.85286 3.39122 1.63316 3.30029 1.39888 3.30029C1.16435 3.30029 0.944643 3.39122 0.779701 3.5559L0.255608 4.08025C0.0907964 4.24507 9.02773e-07 4.46477 8.92527e-07 4.69918C8.82281e-07 4.93358 0.0907964 5.15342 0.255608 5.3181L7.38218 12.4449C7.54752 12.61 7.76826 12.7007 8.00293 12.7002C8.2385 12.7007 8.45912 12.61 8.62432 12.4449Z" fill="#858D96"/>
</g>
<defs>
<clipPath id="clip0_108_140">
<rect width="16" height="16" fill="white" transform="translate(16) rotate(90)"/>
</clipPath>
</defs>
</svg>
