<svg width="32" height="32" viewBox="0 0 32 32" fill="none" xmlns="http://www.w3.org/2000/svg">
<g clip-path="url(#clip0_25317_873)">
<path d="M27.6219 4.37828C27.3506 4.10698 26.9096 4.10698 26.6383 4.37828L16.8992 14.1174C16.6279 14.3887 16.6279 14.8298 16.8992 15.1011C17.0355 15.236 17.2136 15.3042 17.3917 15.3042C17.5698 15.3042 17.7478 15.2361 17.8828 15.1011L27.6219 5.36196C27.8932 5.09065 27.8932 4.64959 27.6219 4.37828Z" fill="#9EA0A5"/>
<path d="M27.1327 4.17389C26.7487 4.17389 26.437 4.48556 26.437 4.86956V13.2174C26.437 13.6014 26.7487 13.9131 27.1327 13.9131C27.5167 13.9131 27.8284 13.6014 27.8284 13.2174V4.86956C27.8284 4.48556 27.5167 4.17389 27.1327 4.17389Z" fill="#9EA0A5"/>
<path d="M27.1326 4.17389H18.7848C18.4008 4.17389 18.0891 4.48556 18.0891 4.86956C18.0891 5.25356 18.4008 5.56517 18.7848 5.56517H27.1326C27.5166 5.56517 27.8283 5.2535 27.8283 4.8695C27.8283 4.4855 27.5166 4.17389 27.1326 4.17389Z" fill="#9EA0A5"/>
<path d="M15.1013 16.8999C14.83 16.6286 14.3889 16.6286 14.1176 16.8999L4.37853 26.639C4.10722 26.9103 4.10722 27.3514 4.37853 27.6227C4.5149 27.7576 4.69294 27.8258 4.87105 27.8258C5.04916 27.8258 5.2272 27.7577 5.3622 27.6227L15.1013 17.8836C15.3726 17.6123 15.3726 17.1712 15.1013 16.8999Z" fill="#9EA0A5"/>
<path d="M4.87048 18.0869C4.48648 18.0869 4.1748 18.3985 4.1748 18.7825V27.1304C4.1748 27.5144 4.48648 27.826 4.87048 27.826C5.25448 27.826 5.56608 27.5144 5.56608 27.1304V18.7825C5.56608 18.3985 5.25448 18.0869 4.87048 18.0869Z" fill="#9EA0A5"/>
<path d="M13.2183 26.4346H4.87048C4.48648 26.4346 4.1748 26.7463 4.1748 27.1303C4.1748 27.5143 4.48648 27.826 4.87048 27.826H13.2183C13.6023 27.826 13.914 27.5143 13.914 27.1303C13.9139 26.7463 13.6023 26.4346 13.2183 26.4346Z" fill="#9EA0A5"/>
<path d="M29.913 0H2.08696C0.936325 0 0 0.936325 0 2.08696V29.913C0 31.0637 0.936325 32 2.08696 32H29.913C31.0637 32 32 31.0637 32 29.913V2.08696C32 0.936325 31.0636 0 29.913 0ZM30.6087 29.913C30.6087 30.2957 30.2956 30.6087 29.913 30.6087H2.08696C1.70432 30.6087 1.39128 30.2957 1.39128 29.913V2.08696C1.39128 1.70432 1.70432 1.39128 2.08696 1.39128H29.913C30.2957 1.39128 30.6087 1.70432 30.6087 2.08696V29.913H30.6087Z" fill="#9EA0A5"/>
</g>
<defs>
<clipPath id="clip0_25317_873">
<rect width="32" height="32" fill="white"/>
</clipPath>
</defs>
</svg>
