<svg width="24" height="24" viewBox="0 0 24 24" fill="none" xmlns="http://www.w3.org/2000/svg">
<g clip-path="url(#clip0_25317_594)">
<path d="M5.33284 12.9365L16.0131 23.6166C16.2602 23.8638 16.5899 24 16.9415 24C17.2931 24 17.6229 23.8638 17.8699 23.6166L18.6564 22.8303C19.1682 22.3179 19.1682 21.4851 18.6564 20.9735L9.68793 12.005L18.6664 3.02651C18.9134 2.77929 19.0498 2.44974 19.0498 2.09832C19.0498 1.74652 18.9134 1.41696 18.6664 1.16955L17.8799 0.383411C17.6326 0.136194 17.3031 -1.52703e-07 16.9515 -1.83441e-07C16.5999 -2.1418e-07 16.2701 0.136194 16.0231 0.383411L5.33284 11.0733C5.08524 11.3213 4.94924 11.6524 4.95002 12.0044C4.94924 12.3578 5.08524 12.6887 5.33284 12.9365Z" fill="white"/>
</g>
<defs>
<clipPath id="clip0_25317_594">
<rect width="24" height="24" fill="white" transform="translate(24 24) rotate(-180)"/>
</clipPath>
</defs>
</svg>
