<svg width="32" height="32" viewBox="0 0 32 32" fill="none" xmlns="http://www.w3.org/2000/svg">
<g clip-path="url(#clip0_25317_897)">
<path d="M29 0H3C1.34312 0 0 1.34312 0 3V29C0 30.6569 1.34312 32 3 32H29C30.6569 32 32 30.6569 32 29V3C32 1.34312 30.6569 0 29 0ZM30 29C30 29.5523 29.5523 30 29 30H3C2.44769 30 2 29.5523 2 29V3C2 2.44769 2.44769 2 3 2H29C29.5523 2 30 2.44769 30 3V29Z" fill="#9EA0A5"/>
<path d="M21.7102 17.2898C21.3202 16.902 20.6903 16.902 20.3002 17.2898L18.0002 19.5898L13.7102 15.2998C13.3202 14.912 12.6903 14.912 12.3002 15.2998L5.30024 22.2998C4.91361 22.6942 4.9198 23.3273 5.31417 23.7139C5.49761 23.8938 5.7433 23.9962 6.00024 23.9998H26.0002C26.5525 24.003 27.0028 23.5579 27.0061 23.0056C27.0076 22.7369 26.901 22.479 26.7102 22.2898L21.7102 17.2898Z" fill="#9EA0A5"/>
<path d="M19 14C20.6569 14 22 12.6569 22 11C22 9.34315 20.6569 8 19 8C17.3431 8 16 9.34315 16 11C16 12.6569 17.3431 14 19 14Z" fill="#9EA0A5"/>
</g>
<defs>
<clipPath id="clip0_25317_897">
<rect width="32" height="32" fill="white"/>
</clipPath>
</defs>
</svg>
