<svg width="86" height="24" viewBox="0 0 86 24" fill="none" xmlns="http://www.w3.org/2000/svg">
<path d="M34.2178 8.00586C35.5075 8.00586 36.4486 8.27018 37.041 8.79883C37.6335 9.32747 37.9297 10.068 37.9297 11.0205C37.9297 11.4535 37.8613 11.8659 37.7246 12.2578C37.5924 12.6452 37.3737 12.9893 37.0684 13.29C36.763 13.5863 36.3597 13.821 35.8584 13.9941C35.3617 14.1673 34.7487 14.2539 34.0195 14.2539H32.9531V18H31.3125V8.00586H34.2178ZM34.1084 9.36621H32.9531V12.8867H33.8486C34.3636 12.8867 34.8011 12.8275 35.1611 12.709C35.5212 12.5859 35.7946 12.3923 35.9814 12.1279C36.1683 11.8636 36.2617 11.515 36.2617 11.082C36.2617 10.5033 36.0863 10.0726 35.7354 9.79004C35.389 9.50749 34.8467 9.36621 34.1084 9.36621ZM42.7764 10.2891C43.4508 10.2891 44.0296 10.4281 44.5127 10.7061C44.9958 10.984 45.3672 11.3783 45.627 11.8887C45.8867 12.3991 46.0166 13.0098 46.0166 13.7207V14.582H40.9648C40.9831 15.3158 41.179 15.8809 41.5527 16.2773C41.931 16.6738 42.4596 16.8721 43.1387 16.8721C43.6217 16.8721 44.0547 16.8265 44.4375 16.7354C44.8249 16.6396 45.2236 16.5007 45.6338 16.3184V17.624C45.2555 17.8018 44.8704 17.9316 44.4785 18.0137C44.0866 18.0957 43.6172 18.1367 43.0703 18.1367C42.3275 18.1367 41.6735 17.9932 41.1084 17.7061C40.5479 17.4144 40.1081 16.9814 39.7891 16.4072C39.4746 15.833 39.3174 15.1198 39.3174 14.2676C39.3174 13.4199 39.4609 12.6999 39.748 12.1074C40.0352 11.515 40.4385 11.0638 40.958 10.7539C41.4775 10.444 42.0837 10.2891 42.7764 10.2891ZM42.7764 11.499C42.2705 11.499 41.8604 11.6631 41.5459 11.9912C41.236 12.3193 41.0537 12.8001 40.999 13.4336H44.4443C44.4398 13.0553 44.376 12.7204 44.2529 12.4287C44.1344 12.137 43.9521 11.9092 43.7061 11.7451C43.4645 11.5811 43.1546 11.499 42.7764 11.499ZM54.0146 17.9932L53.0576 14.4727C53.012 14.2995 52.9574 14.0898 52.8936 13.8438C52.8298 13.5977 52.766 13.3447 52.7021 13.085C52.6383 12.8206 52.5791 12.5768 52.5244 12.3535C52.4743 12.1302 52.4355 11.957 52.4082 11.834H52.3535C52.3307 11.957 52.2943 12.1302 52.2441 12.3535C52.194 12.5768 52.137 12.8206 52.0732 13.085C52.0094 13.3493 51.9456 13.6068 51.8818 13.8574C51.8226 14.1081 51.7679 14.3223 51.7178 14.5L50.7129 17.9932H48.9492L46.8301 10.4258H48.457L49.4414 14.1855C49.5052 14.4408 49.5667 14.7165 49.626 15.0127C49.6898 15.3089 49.7445 15.5915 49.79 15.8604C49.8356 16.1292 49.8698 16.3503 49.8926 16.5234H49.9473C49.9655 16.4004 49.9906 16.2454 50.0225 16.0586C50.0544 15.8672 50.0908 15.6689 50.1318 15.4639C50.1729 15.2542 50.2139 15.0583 50.2549 14.876C50.2959 14.6891 50.3346 14.5387 50.3711 14.4248L51.5332 10.4258H53.29L54.4043 14.4248C54.4544 14.598 54.5091 14.8167 54.5684 15.0811C54.6276 15.3408 54.68 15.6029 54.7256 15.8672C54.7757 16.127 54.8076 16.3434 54.8213 16.5166H54.876C54.8942 16.3617 54.9261 16.152 54.9717 15.8877C55.0218 15.6188 55.0788 15.334 55.1426 15.0332C55.2064 14.7279 55.2725 14.4453 55.3408 14.1855L56.3457 10.4258H57.9453L55.8125 17.9932H54.0146ZM65.9434 14.1992C65.9434 14.8281 65.8613 15.3864 65.6973 15.874C65.5332 16.3617 65.2939 16.7741 64.9795 17.1113C64.665 17.444 64.2868 17.6992 63.8447 17.877C63.4027 18.0501 62.9036 18.1367 62.3477 18.1367C61.8281 18.1367 61.3519 18.0501 60.9189 17.877C60.486 17.6992 60.11 17.444 59.791 17.1113C59.4766 16.7741 59.2327 16.3617 59.0596 15.874C58.8864 15.3864 58.7998 14.8281 58.7998 14.1992C58.7998 13.3652 58.9434 12.6589 59.2305 12.0801C59.5221 11.4967 59.9368 11.0524 60.4746 10.7471C61.0124 10.4417 61.6527 10.2891 62.3955 10.2891C63.0928 10.2891 63.708 10.4417 64.2412 10.7471C64.7744 11.0524 65.1914 11.4967 65.4922 12.0801C65.793 12.6634 65.9434 13.3698 65.9434 14.1992ZM60.4541 14.1992C60.4541 14.7507 60.5202 15.2223 60.6523 15.6143C60.7891 16.0062 60.9987 16.307 61.2812 16.5166C61.5638 16.7217 61.9284 16.8242 62.375 16.8242C62.8216 16.8242 63.1862 16.7217 63.4688 16.5166C63.7513 16.307 63.9587 16.0062 64.0908 15.6143C64.223 15.2223 64.2891 14.7507 64.2891 14.1992C64.2891 13.6478 64.223 13.1807 64.0908 12.7979C63.9587 12.4105 63.7513 12.1165 63.4688 11.916C63.1862 11.7109 62.8193 11.6084 62.3682 11.6084C61.7028 11.6084 61.2174 11.8317 60.9121 12.2783C60.6068 12.7249 60.4541 13.3652 60.4541 14.1992ZM71.624 10.2891C71.7516 10.2891 71.8906 10.2959 72.041 10.3096C72.1914 10.3232 72.3213 10.3415 72.4307 10.3643L72.2803 11.8682C72.1846 11.8408 72.0661 11.8203 71.9248 11.8066C71.7881 11.793 71.665 11.7861 71.5557 11.7861C71.2686 11.7861 70.9951 11.834 70.7354 11.9297C70.4756 12.0208 70.2454 12.1621 70.0449 12.3535C69.8444 12.5404 69.6872 12.7751 69.5732 13.0576C69.4593 13.3402 69.4023 13.6683 69.4023 14.042V18H67.7891V10.4326H69.0469L69.2656 11.7656H69.3408C69.4912 11.4967 69.6781 11.2507 69.9014 11.0273C70.1247 10.804 70.3799 10.6263 70.667 10.4941C70.9587 10.3574 71.2777 10.2891 71.624 10.2891ZM75.4453 18H73.832V7.36328H75.4453V18ZM80.2852 18.1367C79.3828 18.1367 78.6582 17.8086 78.1113 17.1523C77.569 16.4915 77.2979 15.5186 77.2979 14.2334C77.2979 12.9346 77.5736 11.9525 78.125 11.2871C78.681 10.6217 79.4124 10.2891 80.3193 10.2891C80.7021 10.2891 81.0371 10.3415 81.3242 10.4463C81.6113 10.5465 81.8574 10.6833 82.0625 10.8564C82.2721 11.0296 82.4499 11.2233 82.5957 11.4375H82.6709C82.6481 11.2962 82.6208 11.0934 82.5889 10.8291C82.5615 10.5602 82.5479 10.3118 82.5479 10.084V7.36328H84.1611V18H82.9033L82.6162 16.9678H82.5479C82.4111 17.1865 82.238 17.3848 82.0283 17.5625C81.8232 17.7357 81.5771 17.8747 81.29 17.9795C81.0075 18.0843 80.6725 18.1367 80.2852 18.1367ZM80.7363 16.8311C81.4245 16.8311 81.9098 16.6328 82.1924 16.2363C82.4749 15.8398 82.6208 15.2451 82.6299 14.4521V14.2402C82.6299 13.3926 82.4932 12.7432 82.2197 12.292C81.9463 11.8363 81.4473 11.6084 80.7227 11.6084C80.1439 11.6084 79.7018 11.8431 79.3965 12.3125C79.0957 12.7773 78.9453 13.4268 78.9453 14.2607C78.9453 15.0947 79.0957 15.7327 79.3965 16.1748C79.7018 16.6123 80.1484 16.8311 80.7363 16.8311Z" fill="#5E50A1"/>
<path d="M12 2L2 7L12 12L22 7L12 2Z" stroke="#5E50A1" stroke-width="2" stroke-linecap="round" stroke-linejoin="round"/>
<path d="M2 17L12 22L22 17" stroke="#5E50A1" stroke-width="2" stroke-linecap="round" stroke-linejoin="round"/>
<path d="M2 12L12 17L22 12" stroke="#5E50A1" stroke-width="2" stroke-linecap="round" stroke-linejoin="round"/>
</svg>
